:SAMPLES-PER-SECOND 30
:FULLY-SPECIFIED
:DEGREES
421
root  -23.3664 17.5109 4.1349 140.221 -85.9356 -148.012
RightUpLeg  -41.8818 -10.6127 -11.7936
RightLeg  140.784 22.1363 -15.5017
RightFoot  -19.0493 0.919618 15.4925
RightToes  0.000482159 0.542163 -0.142577
Spine  33.0742 -2.51622 2.39413
Spine1  -8.04272 -2.46295 3.961
HEad  2.50741 -9.85617 -9.7953
LeftShoulder1  0.302379 -2.21945 3.59676
LeftArm  -94.2944 -36.4519 11.8755
LeftForeArm  144.673 -81.0648 -108.538
LeftHand  -0.25398 0.0180481 5.50724
RightShoulder  0.45205 -13.8072 -14.5819
RightArm  -93.7701 47.7642 -14.7016
RightForeArm  35.2859 73.3627 37.0803
RightHand  -11.4331 24.4523 -42.7625
LeftUpLeg  -43.166 0.492438 5.87996
LeftLeg  146.496 -2.14179 0.941528
LeftFoot  -22.9382 -1.3019 -14.1111
LeftToes  1.06244e-005 4.65856e-005 -8.18505e-006
422
root  -23.336 17.4917 4.13335 138.114 -85.9331 -146.119
RightUpLeg  -41.6061 -10.4645 -11.8872
RightLeg  140.982 21.8025 -15.176
RightFoot  -19.1612 0.965158 15.9391
RightToes  0.000482159 0.542163 -0.142577
Spine  32.9369 -2.58116 2.28815
Spine1  -8.27308 -2.54485 4.0395
HEad  0.789671 -10.3628 -9.57454
LeftShoulder1  0.318281 -2.36466 3.43621
LeftArm  -94.361 -36.2927 11.8708
LeftForeArm  144.654 -81.0667 -108.49
LeftHand  -0.25398 0.0180481 5.50724
RightShoulder  0.435452 -13.7757 -14.4143
RightArm  -93.7296 47.5336 -14.8141
RightForeArm  35.4033 73.3801 37.11
RightHand  -11.3759 24.4062 -42.6289
LeftUpLeg  -43.084 0.398954 5.9761
LeftLeg  146.574 -2.26825 1.01501
LeftFoot  -22.9382 -1.30681 -14.1589
LeftToes  1.06244e-005 4.65856e-005 -8.18505e-006
423
root  -23.2921 17.4577 4.13576 135.937 -85.9258 -144.195
RightUpLeg  -41.3481 -10.3148 -12.0138
RightLeg  141.236 21.4663 -14.8206
RightFoot  -19.2823 1.01094 16.3587
RightToes  0.000482159 0.542163 -0.142577
Spine  32.7862 -2.63687 2.21797
Spine1  -8.46441 -2.61296 4.07631
HEad  -0.563235 -10.6466 -9.22867
LeftShoulder1  0.331391 -2.45166 3.27274
LeftArm  -94.399 -36.1067 11.8406
LeftForeArm  144.366 -81.0699 -108.327
LeftHand  -0.25398 0.0180481 5.50724
RightShoulder  0.423313 -13.7904 -14.2738
RightArm  -93.7643 47.3596 -14.9526
RightForeArm  35.3723 73.3956 37.1718
RightHand  -11.2327 24.1746 -42.4465
LeftUpLeg  -43.0517 0.325063 6.08665
LeftLeg  146.713 -2.37129 1.07049
LeftFoot  -22.8776 -1.29855 -14.1488
LeftToes  1.06244e-005 4.65856e-005 -8.18505e-006
424
root  -23.2328 17.418 4.14243 133.84 -85.9265 -142.419
RightUpLeg  -41.1229 -10.2166 -12.1311
RightLeg  141.475 21.2432 -14.5498
RightFoot  -19.3402 1.0439 16.7096
RightToes  0.000482159 0.542163 -0.142577
Spine  32.6999 -2.66394 2.10443
Spine1  -8.65192 -2.679 4.15445
HEad  -1.60747 -10.7411 -8.6835
LeftShoulder1  0.33356 -2.38783 3.18799
LeftArm  -94.409 -35.8991 11.667
LeftForeArm  143.993 -81.0582 -108.284
LeftHand  -0.25398 0.0180481 5.50724
RightShoulder  0.422528 -13.8742 -14.227
RightArm  -93.9058 47.3046 -15.0646
RightForeArm  35.1466 73.411 37.2829
RightHand  -11.1838 24.0434 -42.4519
LeftUpLeg  -43.0225 0.268832 6.17692
LeftLeg  146.892 -2.43046 1.09649
LeftFoot  -22.7758 -1.27765 -14.0624
LeftToes  1.06244e-005 4.65856e-005 -8.18505e-006
425
root  -23.1625 17.3733 4.15376 131.988 -85.9417 -140.963
RightUpLeg  -40.8804 -10.1451 -12.2626
RightLeg  141.69 21.1354 -14.3688
RightFoot  -19.3754 1.07689 17.1009
RightToes  0.000482159 0.542163 -0.142577
Spine  32.6847 -2.64428 1.95118
Spine1  -8.83139 -2.7157 4.26307
HEad  -2.38716 -10.8234 -8.04431
LeftShoulder1  0.332291 -2.26984 3.20222
LeftArm  -94.3809 -35.6703 11.3943
LeftForeArm  144.124 -81.0239 -108.712
LeftHand  -0.25398 0.0180481 5.50724
RightShoulder  0.42601 -13.9733 -14.2206
RightArm  -94.0823 47.2451 -15.231
RightForeArm  35.0475 73.439 37.4061
RightHand  -11.1718 24.0157 -42.4472
LeftUpLeg  -42.9603 0.176001 6.21467
LeftLeg  147.082 -2.44875 1.09696
LeftFoot  -22.6563 -1.25808 -14.0086
LeftToes  1.06244e-005 4.65856e-005 -8.18505e-006
426
root  -23.0826 17.3111 4.1678 130.23 -85.954 -139.598
RightUpLeg  -40.6951 -10.036 -12.3869
RightLeg  141.949 21.0611 -14.1876
RightFoot  -19.4048 1.10695 17.4605
RightToes  0.000482159 0.542163 -0.142577
Spine  32.66 -2.59179 1.88329
Spine1  -9.025 -2.68912 4.30319
HEad  -2.94296 -11.0061 -7.48368
LeftShoulder1  0.329054 -2.23493 3.20392
LeftArm  -94.3185 -35.4203 11.1867
LeftForeArm  144.868 -80.9706 -109.6
LeftHand  -0.25398 0.0180481 5.50724
RightShoulder  0.431237 -14.0264 -14.2533
RightArm  -94.1362 47.0334 -15.3723
RightForeArm  35.4606 73.5597 37.7259
RightHand  -11.081 23.9379 -42.2373
LeftUpLeg  -42.9581 0.00841355 6.28438
LeftLeg  147.31 -2.38759 1.04803
LeftFoot  -22.5404 -1.25364 -14.1014
LeftToes  1.06244e-005 4.65856e-005 -8.18505e-006
427
root  -22.9912 17.2252 4.18047 128.119 -85.9468 -137.806
RightUpLeg  -40.694 -9.92864 -12.4312
RightLeg  142.281 21.0001 -13.9793
RightFoot  -19.3272 1.09904 17.5089
RightToes  0.000482159 0.542163 -0.142577
Spine  32.5477 -2.54505 1.94701
Spine1  -9.21451 -2.62962 4.26431
HEad  -3.34646 -11.1839 -7.03231
LeftShoulder1  0.325174 -2.24199 3.07632
LeftArm  -94.3004 -35.1796 11.1603
LeftForeArm  145.867 -80.9006 -110.736
LeftHand  -0.25398 0.0180481 5.50724
RightShoulder  0.446517 -14.0801 -14.3929
RightArm  -94.0694 46.7641 -15.2957
RightForeArm  36.3111 73.8261 38.475
RightHand  -11.0084 23.8685 -42.0778
LeftUpLeg  -43.086 -0.209211 6.4722
LeftLeg  147.619 -2.22759 0.937642
LeftFoot  -22.5011 -1.26953 -14.3086
LeftToes  1.06244e-005 4.65856e-005 -8.18505e-006
428
root  -22.8922 17.1286 4.1895 125.556 -85.9472 -135.549
RightUpLeg  -40.8058 -9.90979 -12.4051
RightLeg  142.623 21.0099 -13.8123
RightFoot  -19.0879 1.04719 17.2705
RightToes  0.000482159 0.542163 -0.142577
Spine  32.3577 -2.51999 2.02376
Spine1  -9.27588 -2.5985 4.19913
HEad  -3.66549 -11.285 -6.58905
LeftShoulder1  0.321973 -2.17685 2.92443
LeftArm  -94.4035 -34.9675 11.24
LeftForeArm  147.199 -80.8 -112.251
LeftHand  -0.25398 0.0180481 5.50724
RightShoulder  0.463566 -14.1981 -14.5204
RightArm  -94.0975 46.6287 -15.1204
RightForeArm  37.257 74.1787 39.5812
RightHand  -11.0467 23.8952 -42.175
LeftUpLeg  -43.2194 -0.439677 6.71827
LeftLeg  147.975 -2.02138 0.800679
LeftFoot  -22.5953 -1.30164 -14.5162
LeftToes  1.06244e-005 4.65856e-005 -8.18505e-006
